<svg width="692" height="689" viewBox="0 0 692 689" fill="none" xmlns="http://www.w3.org/2000/svg">
<path d="M517.484 588.777C517.586 588.092 517.893 587.159 518.407 585.98C518.913 584.881 519.636 583.638 520.576 582.251C521.509 580.946 522.615 579.533 523.894 578.013C525.173 576.493 526.629 575.05 528.261 573.684C531.747 570.767 535.375 568.557 539.144 567.055C542.949 565.596 546.782 564.977 550.643 565.198C554.459 565.455 558.204 566.524 561.876 568.402C565.541 570.362 568.943 573.217 572.081 576.968C575.219 580.719 577.411 584.549 578.656 588.458C579.894 592.448 580.281 596.363 579.817 600.202C579.309 604.078 577.976 607.819 575.817 611.426C573.658 615.032 570.748 618.367 567.085 621.432C564.173 623.868 561.266 625.775 558.367 627.151C555.46 628.608 552.729 629.692 550.174 630.404C550.01 629.491 549.596 628.413 548.93 627.169C548.265 625.925 547.703 624.895 547.244 624.078L547.531 623.614C548.415 623.774 549.531 623.853 550.879 623.85C552.228 623.848 553.69 623.712 555.265 623.444C556.841 623.176 558.457 622.686 560.114 621.976C561.807 621.31 563.447 620.312 565.036 618.983C567.639 616.804 569.716 614.355 571.265 611.633C572.77 608.949 573.622 606.023 573.822 602.855C574.015 599.768 573.449 596.491 572.123 593.024C570.835 589.601 568.658 586.058 565.594 582.395C562.53 578.733 559.408 575.943 556.229 574.027C553.088 572.154 549.962 571.019 546.852 570.62C543.736 570.302 540.723 570.646 537.816 571.654C534.864 572.698 532.086 574.31 529.482 576.488C527.894 577.817 526.604 579.234 525.612 580.739C524.577 582.28 523.729 583.778 523.068 585.23C522.401 586.764 521.885 588.209 521.519 589.565C521.146 591.002 520.854 592.222 520.642 593.224L520.156 593.181L517.484 588.777Z" fill="#DFAD77" fill-opacity="0.1"/>
<path d="M515.884 609.321C514.666 607.234 513.317 605.323 511.838 603.588C510.309 601.882 508.648 600.52 506.855 599.502C505.09 598.533 503.202 598.037 501.189 598.012C499.176 597.988 497.076 598.614 494.89 599.89C492.704 601.166 491.126 602.687 490.158 604.451C489.189 606.216 488.693 608.104 488.668 610.117C488.673 612.18 489.067 614.281 489.85 616.422C490.584 618.592 491.56 620.72 492.778 622.807C493.996 624.894 495.37 626.791 496.898 628.497C498.377 630.232 499.999 631.583 501.764 632.552C503.557 633.57 505.46 634.091 507.473 634.116C509.486 634.14 511.585 633.514 513.772 632.238C515.958 630.962 517.535 629.441 518.504 627.677C519.473 625.912 519.955 623.999 519.95 621.936C519.974 619.924 519.62 617.832 518.886 615.662C518.103 613.522 517.102 611.408 515.884 609.321ZM522.443 605.492C524.415 608.871 525.561 612.033 525.881 614.977C526.18 618 525.88 620.74 524.982 623.196C524.113 625.702 522.799 627.901 521.039 629.795C519.259 631.766 517.3 633.376 515.164 634.623C512.977 635.899 510.613 636.813 508.07 637.365C505.557 637.966 502.995 638.029 500.386 637.553C497.806 637.127 495.298 636.026 492.862 634.25C490.406 632.553 488.191 630.015 486.219 626.636C484.247 623.257 483.111 620.056 482.812 617.033C482.492 614.088 482.767 611.363 483.636 608.857C484.534 606.401 485.877 604.251 487.666 602.408C489.455 600.565 491.442 599.005 493.628 597.729C495.765 596.481 498.101 595.518 500.635 594.838C503.12 594.187 505.652 594.075 508.232 594.5C510.842 594.976 513.374 596.062 515.831 597.76C518.266 599.536 520.47 602.113 522.443 605.492Z" fill="#DFAD77" fill-opacity="0.1"/>
<path d="M453.088 644.273C454.665 648.289 456.629 651.011 458.981 652.436C461.354 653.915 463.906 654.118 466.638 653.046C470.387 651.575 472.693 649.341 473.556 646.344C474.366 643.368 473.951 639.792 472.311 635.614L469.631 628.786C468.685 626.376 467.66 623.842 466.555 621.185C465.418 618.603 464.295 616.294 463.186 614.256C464.46 613.88 465.686 613.461 466.864 612.998C468.042 612.536 469.226 612.009 470.416 611.418C470.989 613.666 471.764 616.112 472.741 618.757C473.685 621.477 474.63 624.042 475.576 626.452L478.855 634.807C479.801 637.217 480.843 639.713 481.98 642.295C483.085 644.952 484.223 647.38 485.395 649.577C483.79 649.898 482.533 650.237 481.622 650.595C481.194 650.763 480.749 650.968 480.288 651.211C479.795 651.529 479.221 651.877 478.567 652.258C477.886 650.053 477.126 647.879 476.285 645.736L476.124 645.799C475.529 648.691 474.428 651.163 472.823 653.214C471.239 655.32 469.001 656.94 466.109 658.075C464.609 658.664 463.025 659.038 461.358 659.198C459.636 659.38 457.949 659.176 456.297 658.589C454.666 658.055 453.118 657.024 451.654 655.498C450.156 654.046 448.861 651.927 447.768 649.142C446.864 646.84 445.982 644.435 445.122 641.93C444.283 639.477 443.328 636.886 442.255 634.154L440.206 628.933C439.869 628.076 439.533 627.219 439.197 626.362C438.828 625.579 438.469 624.824 438.121 624.095C439.235 623.782 440.38 623.394 441.559 622.931C442.683 622.49 443.76 622.005 444.789 621.478C445.775 624.305 446.793 627.212 447.842 630.2C448.838 633.209 449.945 636.266 451.165 639.372L453.088 644.273Z" fill="#DFAD77" fill-opacity="0.1"/>
<path d="M433.099 679.691C432.713 677.532 432.307 675.409 431.88 673.32C431.413 671.301 430.965 669.248 430.539 667.159C429.926 667.319 428.785 667.617 427.115 668.053C425.46 668.545 423.672 669.101 421.753 669.721C421.765 669.54 421.713 669.226 421.597 668.781L421.139 667.027C421.037 666.638 420.936 666.367 420.837 666.214C421.575 666.081 422.334 665.912 423.113 665.709C423.907 665.561 424.75 665.371 425.64 665.138L429.732 664.069C429.729 663.832 429.58 662.92 429.284 661.332C428.933 659.759 428.501 657.879 427.99 655.694C427.493 653.564 426.967 651.322 426.412 648.97C425.801 646.632 425.256 644.544 424.776 642.707C424.369 641.149 423.942 639.625 423.493 638.137C422.989 636.663 422.355 635.372 421.59 634.263C420.839 633.21 419.924 632.439 418.844 631.948C417.764 631.457 416.389 631.429 414.719 631.865C414.274 631.982 413.704 632.19 413.009 632.49C412.259 632.805 411.628 633.119 411.114 633.431L410.591 631.427C411.494 631.013 412.501 630.542 413.611 630.014C414.652 629.445 415.701 629.022 416.759 628.746C420.266 627.83 423.08 628.017 425.201 629.306C427.321 630.596 428.818 632.91 429.69 636.25C430.083 637.753 430.477 639.375 430.872 641.115C431.282 642.911 431.728 644.846 432.21 646.92C432.651 649.065 433.171 651.397 433.77 653.916C434.383 656.492 435.097 659.338 435.911 662.455L438.583 661.757C439.028 661.641 439.494 661.49 439.981 661.303C440.482 661.172 441.003 661.006 441.545 660.805C441.577 661.154 441.629 661.467 441.702 661.745C441.733 662.094 441.793 662.435 441.88 662.769C441.953 663.048 442.053 663.319 442.182 663.583C442.254 663.861 442.355 664.132 442.483 664.396C439.935 664.883 438.076 665.279 436.907 665.585C437.253 666.684 437.672 668.061 438.164 669.716C438.6 671.386 439.107 673.097 439.684 674.85L433.516 679.582L433.099 679.691Z" fill="#DFAD77" fill-opacity="0.1"/>
<path d="M387.579 656.836C388.495 656.35 389.59 655.894 390.864 655.47C392.082 655.054 393.323 654.606 394.589 654.125C395.863 653.7 397.125 653.191 398.374 652.596C399.566 652.009 400.622 651.298 401.544 650.461C402.408 649.633 403.077 648.66 403.549 647.541C403.964 646.432 404.051 645.08 403.812 643.487C403.41 640.813 402.338 638.909 400.597 637.774C398.855 636.64 397.046 636.214 395.168 636.496C393.006 636.821 391.133 637.713 389.549 639.173C387.908 640.642 386.723 642.245 385.996 643.984L387.579 656.836ZM410.942 668.859C408.673 671.178 406.508 672.842 404.449 673.85C402.389 674.857 400.222 675.532 397.946 675.874C395.898 676.182 393.973 676.152 392.172 675.782C390.38 675.47 388.8 674.835 387.435 673.876C386.077 672.975 384.938 671.779 384.015 670.288C383.102 668.855 382.504 667.199 382.221 665.322C381.734 662.079 381.303 658.827 380.93 655.567C380.565 652.364 380.113 648.97 379.574 645.385C379.471 644.703 379.36 643.963 379.24 643.166C379.072 642.435 378.827 641.774 378.506 641.182C378.192 640.648 377.807 640.211 377.349 639.873C376.834 639.543 376.149 639.442 375.296 639.57C375.011 639.613 374.727 639.656 374.443 639.699C374.11 639.807 373.814 639.968 373.555 640.181L373.273 638.303C373.856 637.925 374.618 637.578 375.56 637.262C376.444 636.954 377.456 636.715 378.594 636.544C380.414 636.27 381.877 636.516 382.981 637.281C384.093 638.102 384.846 639.24 385.239 640.694C386.98 638.338 388.773 636.526 390.619 635.26C392.465 633.993 394.839 633.142 397.74 632.706C399.163 632.492 400.587 632.481 402.012 632.674C403.437 632.867 404.759 633.338 405.977 634.086C407.138 634.842 408.154 635.795 409.025 636.944C409.847 638.158 410.382 639.591 410.63 641.241C411.144 644.654 410.489 647.458 408.666 649.652C406.786 651.855 404.016 653.551 400.355 654.742C397.359 655.715 395.034 656.501 393.378 657.099C391.674 657.763 390.454 658.353 389.717 658.871C388.924 659.398 388.48 659.93 388.386 660.468C388.301 661.062 388.323 661.786 388.451 662.64C388.665 664.062 389.041 665.402 389.579 666.659C390.117 667.917 390.828 668.973 391.714 669.829C392.599 670.685 393.681 671.308 394.962 671.698C396.25 672.144 397.748 672.239 399.455 671.982C401.731 671.64 403.788 670.807 405.625 669.484C407.406 668.169 408.643 666.528 409.336 664.562L410.275 664.421L410.942 668.859Z" fill="#DFAD77" fill-opacity="0.1"/>
<path d="M370.504 657.782C370.558 661.522 369.972 664.753 368.746 667.475C367.52 670.197 365.912 672.436 363.924 674.191C361.879 676.004 359.539 677.333 356.904 678.177C354.27 679.078 351.573 679.549 348.811 679.589C345.647 679.635 342.822 679.273 340.337 678.504C337.795 677.793 335.97 676.956 334.863 675.994C335.253 675.125 335.614 674.2 335.945 673.217C336.219 672.292 336.464 671.31 336.679 670.271L337.369 670.261C337.783 671.003 338.34 671.743 339.041 672.481C339.743 673.276 340.588 673.983 341.575 674.602C342.505 675.279 343.549 675.81 344.705 676.196C345.863 676.64 347.132 676.852 348.512 676.832C351.101 676.794 353.338 676.272 355.222 675.267C357.049 674.32 358.555 673.003 359.739 671.317C360.865 669.632 361.699 667.635 362.241 665.325C362.726 663.074 362.95 660.625 362.911 657.979C362.825 652.054 361.494 647.585 358.919 644.572C356.344 641.618 352.612 640.176 347.722 640.247C346.571 640.264 345.394 640.425 344.19 640.73C342.987 641.093 341.814 641.541 340.671 642.076C339.528 642.668 338.474 643.345 337.507 644.107C336.482 644.87 335.602 645.688 334.867 646.562L334.431 646.309C334.699 644.924 334.851 643.512 334.888 642.073C336.594 640.668 338.734 639.457 341.308 638.441C343.825 637.427 346.465 636.899 349.226 636.859C351.7 636.823 354.207 637.132 356.749 637.785C359.233 638.497 361.494 639.673 363.532 641.312C365.571 643.008 367.243 645.199 368.547 647.885C369.795 650.571 370.447 653.87 370.504 657.782Z" fill="#DFAD77" fill-opacity="0.1"/>
<path d="M314.165 688.535C314.543 686.375 314.89 684.24 315.206 682.132C315.458 680.075 315.743 677.993 316.058 675.884C315.428 675.825 314.254 675.713 312.535 675.55C310.812 675.445 308.942 675.354 306.926 675.279C307 675.112 307.058 674.8 307.102 674.342L307.273 672.537C307.311 672.137 307.309 671.847 307.268 671.67C308.008 671.798 308.778 671.9 309.58 671.976C310.377 672.109 311.233 672.219 312.149 672.306L316.359 672.705C316.438 672.482 316.611 671.573 316.878 669.98C317.087 668.382 317.326 666.469 317.595 664.24C317.859 662.069 318.134 659.783 318.419 657.383C318.647 654.978 318.851 652.83 319.03 650.939C319.182 649.336 319.303 647.758 319.392 646.206C319.424 644.649 319.271 643.218 318.932 641.914C318.588 640.668 317.993 639.629 317.147 638.798C316.301 637.966 315.019 637.469 313.301 637.306C312.842 637.263 312.235 637.263 311.48 637.307C310.667 637.345 309.966 637.423 309.377 637.541L309.573 635.479C310.563 635.399 311.67 635.302 312.895 635.187C314.067 635.009 315.198 634.972 316.286 635.075C319.895 635.417 322.474 636.558 324.024 638.496C325.574 640.435 326.186 643.122 325.86 646.559C325.714 648.106 325.527 649.764 325.302 651.534C325.071 653.362 324.826 655.332 324.568 657.446C324.247 659.612 323.936 661.981 323.634 664.553C323.327 667.182 323.021 670.101 322.717 673.308L325.467 673.569C325.925 673.612 326.414 673.63 326.935 673.621C327.451 673.67 327.998 673.693 328.576 673.69C328.486 674.028 328.428 674.341 328.4 674.627C328.311 674.965 328.249 675.306 328.217 675.65C328.19 675.936 328.191 676.226 328.221 676.517C328.194 676.804 328.196 677.093 328.226 677.385C325.664 676.968 323.782 676.703 322.58 676.589C322.528 677.74 322.45 679.178 322.344 680.901C322.181 682.62 322.07 684.401 322.011 686.245L314.595 688.576L314.165 688.535Z" fill="#DFAD77" fill-opacity="0.1"/>
<path d="M232.534 647.91C230.063 655.697 228.186 661.711 226.901 665.951C225.616 670.192 224.832 673.142 224.546 674.802C223.978 674.501 223.437 674.208 222.923 673.925C222.392 673.696 221.853 673.495 221.304 673.321C220.591 673.094 219.725 672.971 218.706 672.949C219.479 671.082 220.374 668.831 221.391 666.196C222.391 663.615 223.433 660.807 224.517 657.771C225.583 654.789 226.684 651.698 227.82 648.497C228.939 645.351 230.004 642.279 231.016 639.28C232.237 635.623 233.856 632.515 235.875 629.956C237.839 627.38 240.13 625.391 242.748 623.988C245.366 622.585 248.294 621.824 251.531 621.704C254.713 621.566 258.169 622.089 261.898 623.272C270.124 625.882 275.511 629.642 278.057 634.555C280.603 639.467 280.598 645.954 278.04 654.016C277.223 656.593 276.446 658.852 275.71 660.791C274.902 662.768 274.167 664.799 273.506 666.883C272.045 671.489 270.803 675.593 269.782 679.192C268.761 682.792 267.914 685.843 267.241 688.345C266.617 688.027 265.939 687.691 265.206 687.338C264.456 687.039 263.752 686.786 263.094 686.577C262.49 686.386 261.906 686.23 261.34 686.111C260.702 686.03 260.064 685.948 259.426 685.866C259.918 684.695 260.532 683.139 261.268 681.199C261.987 679.315 262.793 677.156 263.685 674.723C264.578 672.29 265.504 669.656 266.463 666.822C267.423 663.987 268.389 661.034 269.364 657.963C269.955 656.099 270.545 654.143 271.134 652.097C271.706 650.105 272.131 648.097 272.411 646.073C272.674 644.104 272.727 642.129 272.57 640.148C272.342 638.204 271.751 636.357 270.797 634.606C269.826 632.91 268.421 631.347 266.58 629.918C264.723 628.544 262.258 627.37 259.187 626.396C256.171 625.439 253.509 625.077 251.201 625.311C248.839 625.528 246.773 626.14 245.005 627.148C243.236 628.157 241.7 629.48 240.395 631.119C239.036 632.74 237.87 634.513 236.897 636.437C235.925 638.362 235.089 640.33 234.391 642.342C233.692 644.354 233.073 646.21 232.534 647.91Z" fill="#DFAD77" fill-opacity="0.1"/>
<path d="M223.62 618.456C223.625 617.813 223.528 617.053 223.329 616.177C223.079 615.274 222.739 614.358 222.309 613.428C221.801 612.524 221.178 611.657 220.438 610.827C219.647 609.972 218.714 609.27 217.637 608.721C216.663 608.224 215.662 607.908 214.634 607.771C213.555 607.608 212.538 607.638 211.584 607.862C210.579 608.06 209.65 608.49 208.795 609.152C207.941 609.815 207.226 610.71 206.651 611.837C205.841 613.426 205.688 614.866 206.192 616.156C206.619 617.472 207.368 618.726 208.44 619.918C209.485 621.162 210.697 622.393 212.077 623.614C213.457 624.834 214.63 626.143 215.597 627.54C216.537 628.988 217.155 630.563 217.45 632.263C217.694 633.938 217.268 635.852 216.17 638.004C215.307 639.696 214.241 641.09 212.972 642.186C211.676 643.334 210.229 644.145 208.629 644.622C207.03 645.098 205.293 645.213 203.416 644.966C201.514 644.771 199.537 644.151 197.487 643.105C195.591 642.138 194.132 641.072 193.112 639.906C192.041 638.713 191.021 637.612 190.051 636.601C190.853 636.041 191.721 635.289 192.655 634.344C193.589 633.399 194.264 632.646 194.68 632.083L195.602 632.553C195.385 633.993 195.618 635.5 196.3 637.075C196.982 638.65 198.194 639.882 199.937 640.77C200.706 641.162 201.54 641.426 202.44 641.562C203.339 641.698 204.227 641.666 205.104 641.467C205.98 641.269 206.832 640.864 207.661 640.253C208.489 639.642 209.191 638.772 209.766 637.645C210.602 636.005 210.82 634.501 210.419 633.134C209.941 631.792 209.166 630.525 208.095 629.333C207.023 628.141 205.798 626.935 204.418 625.714C203.012 624.545 201.826 623.262 200.859 621.865C199.866 620.519 199.248 619.009 199.004 617.335C198.709 615.634 199.11 613.707 200.208 611.555C200.966 610.068 202.044 608.777 203.442 607.682C204.789 606.56 206.378 605.724 208.209 605.172C209.963 604.646 211.856 604.481 213.887 604.677C215.892 604.925 217.971 605.597 220.124 606.695C222.481 607.897 224.337 609.134 225.691 610.406C227.044 611.677 228.102 612.895 228.865 614.059C228.218 614.569 227.453 615.309 226.57 616.28C225.61 617.275 224.934 618.158 224.542 618.927L223.62 618.456Z" fill="#DFAD77" fill-opacity="0.1"/>
<path d="M144.792 559.912C145.485 559.884 146.458 560.011 147.713 560.293C148.888 560.584 150.244 561.061 151.783 561.724C153.24 562.395 154.836 563.216 156.569 564.187C158.302 565.157 159.993 566.316 161.641 567.663C165.161 570.539 168.013 573.687 170.196 577.107C172.344 580.57 173.672 584.219 174.18 588.052C174.644 591.849 174.298 595.728 173.142 599.687C171.906 603.655 169.74 607.533 166.646 611.319C163.551 615.106 160.201 617.978 156.595 619.936C152.908 621.901 149.136 623.017 145.278 623.282C141.376 623.511 137.451 622.904 133.503 621.461C129.556 620.018 125.733 617.786 122.035 614.764C119.095 612.361 116.677 609.865 114.781 607.275C112.804 604.693 111.225 602.215 110.046 599.839C110.912 599.507 111.893 598.897 112.99 598.01C114.086 597.123 114.993 596.377 115.709 595.774L116.219 595.968C116.228 596.866 116.36 597.977 116.616 599.301C116.872 600.625 117.279 602.035 117.839 603.533C118.398 605.03 119.182 606.526 120.191 608.019C121.164 609.556 122.452 610.981 124.056 612.291C126.684 614.439 129.48 616.019 132.444 617.029C135.363 618.003 138.398 618.291 141.547 617.892C144.615 617.502 147.728 616.33 150.884 614.377C154.004 612.468 157.075 609.665 160.097 605.968C163.119 602.27 165.272 598.68 166.557 595.198C167.806 591.76 168.335 588.477 168.143 585.348C167.87 582.227 166.965 579.333 165.429 576.666C163.849 573.963 161.745 571.537 159.116 569.389C157.512 568.078 155.878 567.077 154.214 566.386C152.505 565.658 150.876 565.107 149.325 564.731C147.694 564.364 146.177 564.128 144.777 564.023C143.295 563.927 142.042 563.869 141.018 563.849L140.969 563.364L144.792 559.912Z" fill="#DFAD77" fill-opacity="0.1"/>
<path d="M123.48 561.181C125.303 559.595 126.929 557.913 128.357 556.137C129.748 554.317 130.776 552.431 131.442 550.479C132.065 548.565 132.2 546.617 131.849 544.635C131.497 542.653 130.491 540.707 128.829 538.797C127.168 536.887 125.38 535.621 123.466 534.998C121.551 534.375 119.603 534.24 117.621 534.591C115.596 534.981 113.605 535.76 111.647 536.929C109.652 538.054 107.743 539.41 105.92 540.996C104.097 542.582 102.49 544.285 101.099 546.105C99.6705 547.882 98.645 549.727 98.0224 551.641C97.3565 553.593 97.1993 555.56 97.5508 557.542C97.9024 559.524 98.9089 561.47 100.57 563.38C102.232 565.29 104.02 566.556 105.934 567.179C107.848 567.801 109.818 567.918 111.844 567.529C113.826 567.177 115.814 566.439 117.809 565.313C119.766 564.144 121.656 562.767 123.48 561.181ZM128.464 566.911C125.513 569.479 122.62 571.194 119.787 572.057C116.872 572.915 114.125 573.132 111.545 572.708C108.921 572.321 106.515 571.44 104.326 570.064C102.057 568.683 100.111 567.059 98.4869 565.193C96.8253 563.283 95.4865 561.13 94.4704 558.735C93.4109 556.377 92.8715 553.873 92.852 551.221C92.7892 548.606 93.403 545.937 94.6936 543.213C95.903 540.483 97.9836 537.834 100.935 535.266C103.887 532.698 106.82 530.986 109.735 530.128C112.568 529.265 115.296 529.026 117.92 529.413C120.501 529.837 122.863 530.756 125.008 532.169C127.153 533.582 129.056 535.244 130.717 537.154C132.341 539.021 133.723 541.135 134.864 543.499C135.967 545.818 136.55 548.285 136.613 550.9C136.632 553.552 136.037 556.243 134.828 558.973C133.537 561.697 131.416 564.343 128.464 566.911Z" fill="#DFAD77" fill-opacity="0.1"/>
<path d="M77.5441 506.07C73.894 508.371 71.5893 510.811 70.6298 513.388C69.6217 515.996 69.9002 518.541 71.4652 521.023C73.6134 524.43 76.2401 526.277 79.3455 526.563C82.4202 526.801 85.8556 525.723 89.6517 523.33L95.8569 519.417C98.0469 518.036 100.343 516.554 102.746 514.971C105.069 513.37 107.128 511.834 108.921 510.363C109.529 511.544 110.171 512.67 110.846 513.74C111.521 514.811 112.261 515.875 113.064 516.933C110.964 517.918 108.706 519.137 106.29 520.592C103.796 522.029 101.453 523.438 99.2632 524.819L91.671 529.606C89.481 530.987 87.2243 532.478 84.9009 534.079C82.4982 535.662 80.3272 537.235 78.3879 538.798C77.772 537.282 77.2032 536.11 76.6815 535.283C76.436 534.894 76.1509 534.495 75.826 534.088C75.4218 533.663 74.9716 533.164 74.4753 532.593C76.5141 531.512 78.5068 530.357 80.4535 529.13L80.3615 528.984C77.4095 528.94 74.7754 528.323 72.4593 527.13C70.0944 525.969 68.0834 524.074 66.4263 521.446C65.5671 520.083 64.9025 518.598 64.4326 516.99C63.932 515.333 63.8155 513.638 64.083 511.905C64.3019 510.202 65.0239 508.489 66.249 506.764C67.3947 505.021 69.2329 503.352 71.7636 501.756C73.8564 500.437 76.0528 499.12 78.3529 497.806C80.6043 496.522 82.971 495.098 85.4531 493.533L90.1982 490.541C90.9769 490.05 91.7556 489.559 92.5343 489.068C93.2336 488.559 93.9086 488.065 94.5593 487.587C95.0757 488.621 95.6714 489.674 96.3466 490.745C96.991 491.767 97.6688 492.734 98.3798 493.646C95.7877 495.144 93.1226 496.689 90.3845 498.279C87.6157 499.821 84.82 501.482 81.9972 503.262L77.5441 506.07Z" fill="#DFAD77" fill-opacity="0.1"/>
<path d="M39.2886 493.503C41.3362 492.718 43.3453 491.918 45.3162 491.105C47.2103 490.265 49.1428 489.439 51.1136 488.626C50.8411 488.055 50.3331 486.99 49.5898 485.432C48.7945 483.899 47.9114 482.249 46.9403 480.481C47.1209 480.459 47.4189 480.348 47.8343 480.15L49.4699 479.37C49.8334 479.196 50.0807 479.046 50.2117 478.92C50.4819 479.62 50.7904 480.333 51.1373 481.06C51.4322 481.812 51.7779 482.603 52.1744 483.434L53.9955 487.251C54.228 487.204 55.096 486.885 56.5995 486.295C58.0782 485.653 59.8425 484.875 61.8924 483.961C63.8904 483.071 65.9922 482.132 68.1979 481.143C70.3788 480.103 72.3261 479.173 74.0396 478.356C75.4936 477.662 76.9092 476.955 78.2864 476.234C79.6389 475.461 80.7872 474.594 81.7313 473.634C82.6236 472.698 83.209 471.654 83.4876 470.501C83.7662 469.348 83.5338 467.992 82.7905 466.435C82.5923 466.019 82.2802 465.499 81.8542 464.873C81.4035 464.196 80.9763 463.635 80.5728 463.19L82.4421 462.298C83.0191 463.106 83.6716 464.006 84.3997 464.997C85.1549 465.912 85.7678 466.863 86.2386 467.849C87.7996 471.121 88.1469 473.919 87.2805 476.245C86.4141 478.571 84.4231 480.477 81.3076 481.964C79.9055 482.633 78.3873 483.326 76.7528 484.042C75.0664 484.783 73.2501 485.586 71.3041 486.45C69.2813 487.288 67.0892 488.238 64.7277 489.302C62.3144 490.389 59.6537 491.627 56.7458 493.015L57.9352 495.507C58.1334 495.922 58.37 496.351 58.6449 496.794C58.8679 497.261 59.1292 497.742 59.4289 498.237C59.0926 498.334 58.7946 498.444 58.535 498.568C58.1986 498.664 57.8747 498.787 57.5631 498.936C57.3035 499.06 57.0563 499.21 56.8214 499.385C56.5618 499.509 56.3145 499.659 56.0797 499.835C55.1205 497.424 54.3807 495.673 53.8604 494.583C52.8466 495.13 51.5732 495.802 50.0402 496.597C48.4824 497.34 46.8975 498.16 45.2854 499.057L39.4745 493.893L39.2886 493.503Z" fill="#DFAD77" fill-opacity="0.1"/>
<path d="M53.2165 444.401C53.8656 445.21 54.5174 446.201 55.172 447.374C55.8076 448.492 56.4798 449.629 57.1886 450.783C57.8432 451.955 58.5792 453.1 59.3967 454.216C60.1952 455.277 61.0913 456.183 62.0852 456.932C63.0601 457.627 64.1409 458.102 65.3275 458.357C66.4951 458.557 67.8391 458.392 69.3595 457.859C71.9117 456.965 73.5827 455.557 74.3725 453.635C75.1624 451.712 75.2435 449.855 74.616 448.063C73.8934 446 72.6672 444.326 70.9374 443.042C69.1885 441.704 67.3922 440.839 65.5485 440.448L53.2165 444.401ZM45.7633 469.597C43.0613 467.8 41.0232 465.984 39.649 464.149C38.2748 462.313 37.2074 460.31 36.4467 458.138C35.7622 456.183 35.4333 454.286 35.4602 452.448C35.4327 450.629 35.7623 448.959 36.449 447.438C37.0814 445.936 38.0438 444.594 39.336 443.41C40.574 442.245 42.089 441.348 43.8809 440.721C46.9761 439.637 50.0903 438.607 53.2236 437.632C56.3025 436.676 59.5525 435.599 62.9735 434.401C63.6251 434.172 64.331 433.925 65.0912 433.659C65.7781 433.357 66.3822 432.993 66.9035 432.567C67.3704 432.16 67.7274 431.699 67.9744 431.186C68.2024 430.619 68.1738 429.928 67.8885 429.113C67.7935 428.842 67.6984 428.57 67.6033 428.299C67.4349 427.992 67.2217 427.731 66.9637 427.517L68.7557 426.889C69.2364 427.391 69.7198 428.076 70.206 428.942C70.6731 429.753 71.0969 430.702 71.4772 431.788C72.0857 433.526 72.1172 435.009 71.5716 436.236C70.9717 437.482 69.9944 438.434 68.6396 439.092C71.279 440.362 73.3931 441.786 74.9818 443.363C76.5705 444.94 77.8497 447.114 78.8195 449.883C79.2949 451.24 79.5707 452.637 79.647 454.074C79.7232 455.51 79.5076 456.896 79.0001 458.232C78.4735 459.514 77.727 460.69 76.7606 461.76C75.7208 462.794 74.4136 463.588 72.8388 464.139C69.5807 465.28 66.7039 465.16 64.2083 463.778C61.6938 462.342 59.5103 459.937 57.658 456.562C56.1424 453.801 54.9365 451.663 54.0402 450.148C53.0706 448.597 52.2626 447.509 51.6163 446.882C50.951 446.2 50.3454 445.864 49.7996 445.872C49.1996 445.899 48.4923 446.055 47.6778 446.341C46.3202 446.816 45.074 447.435 43.9392 448.198C42.8043 448.962 41.8989 449.858 41.223 450.887C40.5471 451.916 40.1373 453.096 39.9936 454.427C39.7956 455.776 39.9818 457.265 40.5523 458.894C41.3129 461.066 42.5148 462.932 44.1577 464.49C45.7817 465.994 47.6241 466.903 49.6851 467.218L49.9988 468.114L45.7633 469.597Z" fill="#DFAD77" fill-opacity="0.1"/>
<path d="M49.1328 427.817C45.4678 428.562 42.1844 428.583 39.2824 427.881C36.3804 427.179 33.8832 426.013 31.7908 424.383C29.6306 422.708 27.8924 420.654 26.5762 418.221C25.2036 415.799 24.2424 413.235 23.6927 410.528C23.0628 407.427 22.8962 404.584 23.1931 401.999C23.4222 399.37 23.9071 397.422 24.6481 396.156C25.574 396.379 26.5506 396.562 27.5778 396.706C28.5372 396.804 29.5473 396.863 30.608 396.883L30.7454 397.559C30.0926 398.103 29.4684 398.787 28.8729 399.613C28.2209 400.45 27.6822 401.41 27.2567 402.495C26.7634 403.535 26.4339 404.658 26.2682 405.866C26.0462 407.085 26.0727 408.372 26.3475 409.725C26.8629 412.262 27.7889 414.364 29.1253 416.03C30.394 417.651 31.9661 418.887 33.8418 419.739C35.7059 420.535 37.823 420.985 40.1928 421.091C42.4949 421.152 44.9427 420.919 47.5364 420.392C53.3439 419.212 57.4898 417.078 59.9742 413.991C62.4022 410.914 63.1295 406.98 62.1559 402.187C61.9269 401.059 61.5511 399.932 61.0287 398.805C60.4499 397.69 59.7922 396.62 59.0557 395.595C58.2628 394.582 57.4025 393.671 56.4748 392.861C55.5357 391.995 54.5688 391.282 53.5741 390.72L53.742 390.246C55.1524 390.253 56.5682 390.142 57.9892 389.912C59.686 391.328 61.2714 393.208 62.7453 395.55C64.2078 397.837 65.2139 400.333 65.7636 403.039C66.2561 405.464 66.416 407.985 66.2433 410.604C66.0028 413.177 65.2655 415.616 64.0312 417.922C62.7406 420.239 60.8962 422.287 58.4981 424.066C56.0886 425.788 52.9668 427.038 49.1328 427.817Z" fill="#DFAD77" fill-opacity="0.1"/>
<path d="M8.53659 378.561C10.7294 378.526 12.891 378.466 15.0211 378.379C17.0886 378.241 19.1874 378.129 21.3175 378.043C21.2578 377.412 21.1464 376.238 20.9835 374.52C20.7633 372.807 20.5009 370.954 20.1963 368.96C20.3736 369.001 20.6913 369 21.1495 368.956L22.9538 368.785C23.3548 368.747 23.6384 368.691 23.8048 368.618C23.8182 369.368 23.8628 370.144 23.9389 370.946C23.9576 371.753 24.0104 372.615 24.0973 373.531L24.4964 377.741C24.731 377.777 25.6556 377.776 27.2702 377.738C28.8795 377.643 30.8037 377.519 33.043 377.364C35.225 377.215 37.5215 377.055 39.9326 376.885C42.3383 376.656 44.4863 376.453 46.3764 376.274C47.9802 376.122 49.5527 375.944 51.0937 375.74C52.6294 375.478 54.0056 375.059 55.2222 374.481C56.3816 373.909 57.2902 373.129 57.9479 372.142C58.6057 371.155 58.8531 369.803 58.6902 368.084C58.6467 367.626 58.5324 367.03 58.3473 366.296C58.1567 365.505 57.9483 364.832 57.7222 364.275L59.7842 364.08C60.0483 365.037 60.352 366.106 60.6951 367.287C61.0901 368.406 61.3392 369.509 61.4424 370.597C61.7845 374.206 61.1492 376.954 59.5365 378.84C57.9238 380.727 55.3991 381.833 51.9624 382.159C50.4159 382.306 48.7521 382.434 46.9711 382.546C45.1327 382.662 43.1512 382.792 41.0265 382.936C38.8391 383.028 36.4539 383.167 33.8709 383.354C31.2307 383.547 28.3068 383.795 25.0992 384.099L25.3599 386.848C25.4033 387.307 25.4781 387.791 25.5843 388.301C25.6331 388.816 25.7134 389.358 25.825 389.925C25.4759 389.9 25.1581 389.902 24.8717 389.929C24.5226 389.904 24.1762 389.908 23.8326 389.941C23.5462 389.968 23.2625 390.024 22.9815 390.108C22.6952 390.135 22.4115 390.191 22.1305 390.275C22.058 387.682 21.9647 385.783 21.8507 384.58C20.7105 384.746 19.284 384.939 17.5711 385.16C15.8527 385.322 14.0825 385.548 12.2605 385.836L8.57731 378.99L8.53659 378.561Z" fill="#DFAD77" fill-opacity="0.1"/>
<path d="M33.2716 290.709C25.1604 289.731 18.9022 289.005 14.4969 288.532C10.0917 288.058 7.04709 287.836 5.36302 287.865C5.55304 287.25 5.73962 286.664 5.92275 286.107C6.04876 285.542 6.14621 284.975 6.2151 284.403C6.30466 283.661 6.26519 282.787 6.09669 281.781C8.07526 282.194 10.4537 282.654 13.232 283.163C15.9531 283.665 18.9062 284.166 22.0912 284.666C25.2191 285.16 28.4612 285.667 31.8176 286.187C35.1168 286.701 38.3338 287.176 41.4686 287.612C45.2888 288.131 48.6437 289.144 51.5334 290.651C54.4299 292.102 56.8109 293.982 58.6764 296.294C60.5419 298.605 61.8347 301.34 62.5549 304.498C63.282 307.599 63.4113 311.092 62.9428 314.976C61.9095 323.544 59.2165 329.536 54.8638 332.952C50.5111 336.368 44.1364 337.569 35.7396 336.557C33.0549 336.233 30.6913 335.89 28.6487 335.528C26.5559 335.102 24.4242 334.758 22.2536 334.496C17.4554 333.917 13.193 333.461 9.46632 333.127C5.73967 332.794 2.58423 332.529 0 332.333C0.196911 331.662 0.400709 330.933 0.611395 330.147C0.764963 329.354 0.883081 328.615 0.965748 327.93C1.04153 327.301 1.0853 326.698 1.09706 326.12C1.0586 325.478 1.02014 324.836 0.98167 324.194C2.22456 324.46 3.86729 324.774 5.90987 325.136C7.89534 325.491 10.1664 325.881 12.7231 326.305C15.2797 326.729 18.0398 327.149 21.0032 327.565C23.9666 327.98 27.0477 328.38 30.2465 328.766C32.1886 329 34.2198 329.216 36.3402 329.414C38.4035 329.605 40.4554 329.65 42.4959 329.548C44.4794 329.44 46.4298 329.124 48.3473 328.602C50.2145 328.016 51.9196 327.092 53.4628 325.829C54.9488 324.559 56.2225 322.887 57.284 320.813C58.2883 318.732 58.9834 316.092 59.3692 312.894C59.7481 309.752 59.608 307.069 58.9489 304.846C58.2968 302.565 57.3108 300.649 55.991 299.099C54.6712 297.549 53.085 296.286 51.2324 295.309C49.3867 294.275 47.4278 293.459 45.3557 292.862C43.2835 292.264 41.1942 291.809 39.0876 291.497C36.981 291.185 35.0423 290.923 33.2716 290.709Z" fill="#DFAD77" fill-opacity="0.1"/>
<path d="M60.4952 276.6C61.1278 276.484 61.8556 276.245 62.6786 275.884C63.5176 275.467 64.3529 274.96 65.1845 274.362C65.9768 273.693 66.7102 272.916 67.3846 272.033C68.075 271.095 68.5879 270.045 68.9233 268.885C69.2267 267.834 69.3484 266.792 69.2883 265.756C69.2442 264.665 69.0219 263.673 68.6215 262.779C68.2371 261.829 67.639 260.997 66.8271 260.284C66.0153 259.57 65.0013 259.037 63.7853 258.686C62.0718 258.191 60.6291 258.313 59.4573 259.052C58.2461 259.721 57.1565 260.693 56.1885 261.971C55.1652 263.232 54.1849 264.656 53.2476 266.241C52.3102 267.827 51.247 269.227 50.0579 270.44C48.8135 271.638 47.3843 272.542 45.7702 273.154C44.1722 273.71 42.2124 273.653 39.8909 272.982C38.0668 272.455 36.4965 271.672 35.1798 270.633C33.8078 269.577 32.7368 268.31 31.9668 266.829C31.1967 265.349 30.7552 263.665 30.6424 261.775C30.4742 259.87 30.7096 257.812 31.3485 255.601C31.9394 253.556 32.711 251.923 33.663 250.7C34.631 249.423 35.5198 248.213 36.3293 247.069C37.0307 247.751 37.9334 248.461 39.0376 249.199C40.1419 249.937 41.0096 250.458 41.641 250.76L41.3535 251.755C39.8991 251.814 38.4632 252.327 37.0456 253.295C35.6281 254.263 34.6478 255.686 34.1047 257.566C33.8651 258.395 33.7637 259.264 33.8005 260.173C33.8373 261.082 34.0362 261.948 34.3973 262.771C34.7584 263.594 35.3172 264.354 36.0738 265.052C36.8304 265.749 37.8167 266.274 39.0327 266.625C40.8015 267.137 42.3191 267.066 43.5855 266.414C44.8127 265.69 45.9103 264.69 46.8783 263.413C47.8463 262.135 48.799 260.704 49.7363 259.118C50.6183 257.516 51.6539 256.109 52.843 254.895C53.9768 253.666 55.3428 252.773 56.9409 252.217C58.555 251.605 60.5227 251.635 62.8442 252.305C64.4472 252.769 65.9187 253.583 67.2587 254.749C68.6147 255.859 69.7366 257.262 70.6246 258.956C71.4733 260.578 71.9933 262.405 72.1848 264.437C72.321 266.453 72.0537 268.621 71.3829 270.943C70.6481 273.485 69.7845 275.542 68.7919 277.111C67.7993 278.681 66.8036 279.95 65.8049 280.92C65.1822 280.38 64.3108 279.769 63.1906 279.086C62.0311 278.332 61.0368 277.835 60.2077 277.595L60.4952 276.6Z" fill="#DFAD77" fill-opacity="0.1"/>
<path d="M103.162 188.214C103.319 188.889 103.376 189.869 103.331 191.155C103.264 192.363 103.048 193.784 102.683 195.42C102.295 196.977 101.785 198.697 101.154 200.58C100.522 202.464 99.6984 204.341 98.6815 206.211C96.5102 210.204 93.9479 213.592 90.9944 216.374C87.9904 219.128 84.6525 221.111 80.9807 222.324C77.3363 223.486 73.4613 223.868 69.3557 223.469C65.2271 222.992 61.0145 221.586 56.7181 219.25C52.4217 216.913 48.9765 214.156 46.3826 210.977C43.7655 207.721 41.9678 204.222 40.9894 200.481C40.0385 196.689 39.9047 192.72 40.588 188.572C41.2714 184.425 42.7536 180.254 45.0348 176.058C46.8487 172.722 48.8516 169.882 51.0434 167.537C53.2121 165.115 55.3538 163.103 57.4686 161.502C57.9563 162.291 58.7381 163.142 59.8137 164.054C60.8894 164.967 61.7904 165.719 62.5167 166.31L62.421 166.847C61.5396 167.023 60.4724 167.36 59.2195 167.857C57.9666 168.355 56.6565 169.018 55.2893 169.846C53.922 170.674 52.5986 171.723 51.3192 172.992C49.9892 174.234 48.8295 175.764 47.8401 177.584C46.2185 180.566 45.1871 183.607 44.7458 186.707C44.3319 189.757 44.6137 192.792 45.5912 195.812C46.5455 198.754 48.2758 201.594 50.7819 204.332C53.2375 207.042 56.563 209.538 60.7583 211.819C64.9536 214.101 68.8815 215.549 72.542 216.164C76.1519 216.751 79.4763 216.66 82.515 215.889C85.5307 215.04 88.2059 213.613 90.5404 211.608C92.9025 209.552 94.8943 207.033 96.5159 204.051C97.5053 202.231 98.1848 200.44 98.5544 198.676C98.9515 196.862 99.1904 195.158 99.2709 193.564C99.3284 191.893 99.2782 190.359 99.1202 188.964C98.9392 187.49 98.7631 186.248 98.5918 185.238L99.06 185.1L103.162 188.214Z" fill="#DFAD77" fill-opacity="0.1"/>
<path d="M96.8698 168.89C98.77 170.383 100.727 171.664 102.74 172.734C104.789 173.758 106.834 174.414 108.877 174.702C110.874 174.954 112.813 174.721 114.693 174.003C116.574 173.286 118.296 171.932 119.86 169.941C121.424 167.951 122.332 165.957 122.584 163.96C122.836 161.962 122.603 160.024 121.886 158.143C121.123 156.227 119.984 154.417 118.468 152.714C116.988 150.966 115.298 149.345 113.398 147.853C111.498 146.36 109.523 145.101 107.474 144.077C105.461 143.007 103.456 142.347 101.459 142.095C99.4166 141.807 97.4551 142.022 95.5744 142.74C93.6937 143.457 91.9714 144.811 90.4075 146.802C88.8435 148.792 87.9356 150.786 87.6836 152.783C87.4316 154.78 87.687 156.737 88.4497 158.653C89.1672 160.534 90.266 162.349 91.7461 164.097C93.2617 165.8 94.9696 167.398 96.8698 168.89ZM92.178 174.862C89.1015 172.445 86.8733 169.927 85.4933 167.306C84.1036 164.604 83.3748 161.947 83.3068 159.332C83.1936 156.682 83.6071 154.154 84.5474 151.746C85.478 149.258 86.7074 147.041 88.2358 145.096C89.7998 143.105 91.6627 141.386 93.8245 139.938C95.941 138.455 98.3 137.454 100.901 136.937C103.457 136.385 106.194 136.486 109.113 137.242C112.021 137.917 115.013 139.464 118.09 141.881C121.166 144.298 123.399 146.857 124.789 149.558C126.169 152.179 126.916 154.814 127.029 157.464C127.097 160.078 126.638 162.571 125.653 164.943C124.667 167.315 123.392 169.497 121.828 171.487C120.3 173.433 118.482 175.188 116.375 176.752C114.304 178.271 111.99 179.306 109.434 179.859C106.833 180.376 104.078 180.297 101.17 179.622C98.2517 178.866 95.2545 177.279 92.178 174.862Z" fill="#DFAD77" fill-opacity="0.1"/>
<path d="M143.759 111.99C140.828 108.823 138.007 107.004 135.298 106.533C132.549 106.02 130.098 106.76 127.945 108.753C124.989 111.489 123.655 114.41 123.942 117.515C124.272 120.581 125.961 123.761 129.009 127.054L133.992 132.438C135.751 134.338 137.629 136.324 139.625 138.396C141.624 140.387 143.511 142.129 145.286 143.622C144.237 144.437 143.248 145.274 142.319 146.134C141.39 146.994 140.479 147.915 139.586 148.899C138.234 147.014 136.621 145.018 134.748 142.91C132.878 140.721 131.064 138.676 129.305 136.776L123.208 130.189C121.45 128.289 119.571 126.344 117.571 124.353C115.575 122.281 113.631 120.435 111.739 118.815C113.117 117.932 114.164 117.158 114.882 116.493C115.22 116.181 115.559 115.827 115.9 115.433C116.244 114.958 116.652 114.424 117.122 113.832C118.559 115.638 120.059 117.385 121.622 119.074L121.749 118.957C121.251 116.047 121.375 113.344 122.123 110.849C122.832 108.311 124.326 105.987 126.606 103.877C127.788 102.783 129.127 101.857 130.622 101.101C132.159 100.305 133.804 99.8799 135.557 99.8254C137.271 99.7288 139.087 100.125 141.007 101.013C142.93 101.82 144.908 103.321 146.94 105.517C148.621 107.333 150.318 109.251 152.031 111.271C153.706 113.249 155.54 115.315 157.533 117.468L161.343 121.585C161.969 122.261 162.594 122.936 163.219 123.612C163.848 124.206 164.457 124.779 165.046 125.331C164.124 126.028 163.198 126.807 162.269 127.667C161.382 128.488 160.556 129.331 159.789 130.197C157.842 127.923 155.835 125.586 153.77 123.186C151.747 120.746 149.602 118.302 147.335 115.853L143.759 111.99Z" fill="#DFAD77" fill-opacity="0.1"/>
<path d="M149.023 71.9595C150.174 73.8262 151.331 75.6527 152.495 77.439C153.671 79.1449 154.841 80.8911 156.005 82.6774C156.516 82.3038 157.468 81.6076 158.861 80.5888C160.22 79.5236 161.679 78.3502 163.236 77.0687C163.292 77.242 163.455 77.5144 163.727 77.8859L164.797 79.3489C165.034 79.674 165.227 79.8892 165.376 79.9946C164.738 80.3896 164.094 80.8249 163.444 81.3003C162.76 81.7293 162.046 82.2155 161.303 82.7589L157.889 85.255C157.979 85.4747 158.453 86.2687 159.311 87.6371C160.215 88.9714 161.306 90.5612 162.584 92.4065C163.828 94.2053 165.14 96.097 166.52 98.0815C167.947 100.032 169.22 101.774 170.341 103.306C171.292 104.607 172.249 105.867 173.212 107.087C174.222 108.273 175.286 109.241 176.405 109.991C177.49 110.695 178.624 111.077 179.809 111.137C180.993 111.198 182.282 110.718 183.676 109.7C184.047 109.428 184.501 109.025 185.037 108.49C185.619 107.922 186.091 107.399 186.454 106.92L187.677 108.592C186.989 109.308 186.225 110.116 185.386 111.015C184.627 111.926 183.806 112.705 182.924 113.35C179.998 115.489 177.312 116.349 174.866 115.928C172.42 115.507 170.178 113.903 168.14 111.117C167.223 109.863 166.262 108.499 165.255 107.025C164.215 105.505 163.09 103.869 161.88 102.116C160.682 100.284 159.342 98.3052 157.861 96.1813C156.345 94.011 154.636 91.6254 152.734 89.0246L150.505 90.6547C150.133 90.9264 149.756 91.2383 149.372 91.5903C148.954 91.896 148.529 92.2418 148.099 92.6279C147.942 92.3153 147.778 92.0428 147.608 91.8106C147.451 91.498 147.27 91.2024 147.067 90.9237C146.897 90.6915 146.704 90.4763 146.488 90.278C146.318 90.0458 146.125 89.8306 145.909 89.6323C148.1 88.2434 149.684 87.1924 150.659 86.4792C149.934 85.5843 149.038 84.4572 147.973 83.0979C146.954 81.7046 145.855 80.2988 144.675 78.8805L148.674 72.2142L149.023 71.9595Z" fill="#DFAD77" fill-opacity="0.1"/>
<path d="M199.452 76.6827C198.778 77.4714 197.926 78.2967 196.896 79.1586C195.916 79.9917 194.925 80.8642 193.923 81.7759C192.893 82.6379 191.906 83.5745 190.963 84.5858C190.069 85.5684 189.347 86.6178 188.796 87.734C188.295 88.8215 188.03 89.9719 188.001 91.1852C188.022 92.3698 188.436 93.6592 189.242 95.0536C190.597 97.3942 192.292 98.773 194.328 99.1902C196.364 99.6074 198.204 99.3405 199.847 98.3896C201.74 97.2947 203.155 95.7776 204.094 93.8386C205.082 91.8707 205.596 89.9447 205.636 88.0604L199.452 76.6827ZM173.307 74.0623C174.569 71.0724 175.972 68.7312 177.519 67.0387C179.066 65.3461 180.835 63.9235 182.827 62.7709C184.62 61.7336 186.422 61.0566 188.232 60.7399C190.015 60.3734 191.717 60.3856 193.339 60.7765C194.932 61.1176 196.431 61.8124 197.835 62.861C199.211 63.8598 200.374 65.1809 201.325 66.8243C202.968 69.6628 204.56 72.5302 206.103 75.4264C207.617 78.2728 209.282 81.2647 211.097 84.402C211.443 84.9996 211.818 85.647 212.221 86.3442C212.645 86.9628 213.116 87.4883 213.632 87.9208C214.119 88.3036 214.638 88.5684 215.188 88.7153C215.788 88.8334 216.462 88.6763 217.209 88.244C217.458 88.1 217.707 87.9559 217.956 87.8118C218.226 87.5891 218.442 87.3311 218.605 87.0376L219.556 88.681C219.152 89.2469 218.57 89.8495 217.81 90.4888C217.099 91.0992 216.246 91.6926 215.25 92.2689C213.657 93.191 212.206 93.4986 210.899 93.1916C209.562 92.8349 208.445 92.0524 207.546 90.844C206.791 93.6741 205.786 96.0168 204.533 97.8719C203.28 99.727 201.384 101.389 198.844 102.859C197.599 103.579 196.278 104.111 194.881 104.454C193.484 104.797 192.082 104.844 190.675 104.594C189.317 104.316 188.023 103.802 186.791 103.053C185.581 102.224 184.558 101.088 183.722 99.6437C181.993 96.6557 181.575 93.8069 182.466 91.0974C183.408 88.3591 185.363 85.7651 188.333 83.3155C190.763 81.3113 192.638 79.7276 193.96 78.5643C195.302 77.3225 196.22 76.3255 196.716 75.5735C197.261 74.7927 197.479 74.135 197.369 73.6003C197.23 73.0159 196.945 72.3502 196.512 71.6032C195.792 70.3582 194.951 69.2495 193.99 68.277C193.028 67.3045 191.979 66.5822 190.841 66.1102C189.704 65.6383 188.469 65.4558 187.135 65.5629C185.772 65.6203 184.343 66.0812 182.85 66.9456C180.858 68.0982 179.249 69.627 178.025 71.5319C176.851 73.408 176.301 75.3878 176.377 77.4712L175.555 77.9466L173.307 74.0623Z" fill="#DFAD77" fill-opacity="0.1"/>
<path d="M214.247 69.809C212.829 66.3486 212.193 63.1273 212.338 60.1452C212.484 57.163 213.161 54.4915 214.37 52.1307C215.61 49.6948 217.302 47.6023 219.445 45.8533C221.567 44.051 223.905 42.6262 226.46 41.5788C229.388 40.3787 232.15 39.6822 234.744 39.4892C237.371 39.2212 239.375 39.3324 240.757 39.8228C240.712 40.7741 240.715 41.7677 240.767 42.8037C240.849 43.7646 240.981 44.7678 241.161 45.8133L240.522 46.0752C239.866 45.5358 239.076 45.0511 238.154 44.6208C237.209 44.1374 236.165 43.7883 235.02 43.5736C233.906 43.2839 232.74 43.1709 231.523 43.2347C230.284 43.2452 229.025 43.5123 227.747 44.036C225.352 45.0179 223.461 46.3214 222.075 47.9465C220.721 49.4965 219.801 51.2726 219.316 53.2747C218.884 55.255 218.838 57.4189 219.178 59.7666C219.55 62.0392 220.238 64.4 221.242 66.8489C223.489 72.3322 226.362 76.0047 229.861 77.8661C233.338 79.6743 237.34 79.6511 241.865 77.7964C242.929 77.36 243.966 76.7795 244.975 76.0551C245.962 75.2775 246.89 74.4309 247.758 73.5154C248.605 72.5466 249.339 71.5307 249.96 70.4677C250.635 69.3828 251.154 68.2993 251.519 67.2171L252.017 67.293C252.274 68.6798 252.649 70.0495 253.141 71.4023C252.068 73.3346 250.519 75.2442 248.494 77.1311C246.523 78.9962 244.259 80.4525 241.704 81.4999C239.415 82.4381 236.968 83.0679 234.364 83.3892C231.791 83.6353 229.256 83.3684 226.76 82.5882C224.242 81.7548 221.885 80.3271 219.688 78.305C217.545 76.2611 215.731 73.4291 214.247 69.809Z" fill="#DFAD77" fill-opacity="0.1"/>
<path d="M255.018 20.6155C255.459 22.7638 255.92 24.8765 256.401 26.9535C256.92 28.9594 257.42 31.0008 257.901 33.0779C258.509 32.9022 259.642 32.5747 261.3 32.0956C262.942 31.5611 264.715 30.9591 266.617 30.2896C266.61 30.4714 266.67 30.7834 266.798 31.2255L267.301 32.9667C267.413 33.3536 267.521 33.622 267.624 33.7718C266.889 33.9242 266.135 34.1122 265.361 34.3358C264.571 34.5041 263.734 34.716 262.85 34.9716L258.787 36.1456C258.796 36.3826 258.969 37.291 259.305 38.8706C259.697 40.4342 260.177 42.3018 260.745 44.4735C261.296 46.5898 261.88 48.8168 262.495 51.1542C263.166 53.4757 263.765 55.5485 264.292 57.3725C264.74 58.9202 265.206 60.4322 265.693 61.9086C266.235 63.369 266.902 64.6434 267.696 65.7316C268.474 66.7646 269.408 67.5126 270.5 67.9756C271.592 68.4386 272.968 68.4305 274.626 67.9513C275.068 67.8236 275.632 67.6006 276.319 67.2824C277.061 66.9482 277.684 66.6184 278.189 66.2928L278.764 68.2827C277.872 68.72 276.878 69.217 275.781 69.7735C274.756 70.3693 273.718 70.8189 272.667 71.1224C269.185 72.1287 266.367 72.0146 264.214 70.7803C262.061 69.546 260.505 67.2706 259.547 63.9542C259.115 62.4618 258.68 60.8509 258.24 59.1214C257.784 57.3367 257.288 55.4138 256.753 53.3527C256.256 51.2204 255.676 48.9026 255.013 46.3993C254.333 43.8407 253.546 41.0138 252.652 37.9185L249.999 38.6851C249.557 38.8129 249.095 38.9763 248.613 39.1753C248.116 39.3191 247.599 39.4985 247.062 39.7134C247.021 39.3658 246.961 39.0538 246.881 38.7775C246.841 38.4299 246.773 38.0902 246.677 37.7586C246.597 37.4822 246.489 37.2138 246.354 36.9534C246.274 36.6771 246.167 36.4087 246.032 36.1483C248.567 35.5954 250.415 35.1512 251.576 34.8158C251.201 33.7263 250.746 32.3604 250.212 30.7182C249.733 29.06 249.182 27.3625 248.561 25.6257L254.604 20.7353L255.018 20.6155Z" fill="#DFAD77" fill-opacity="0.1"/>
<path d="M346.663 28.355C346.129 20.2025 345.688 13.9178 345.341 9.50085C344.994 5.0839 344.651 2.05047 344.313 0.400564C344.952 0.474017 345.562 0.549349 346.144 0.62656C346.721 0.646363 347.297 0.637458 347.872 0.599847C348.618 0.550951 349.47 0.351003 350.427 0C350.386 2.0207 350.372 4.44329 350.384 7.26776C350.392 10.0348 350.444 13.0296 350.54 16.2522C350.632 19.4174 350.732 22.6974 350.839 26.0922C350.942 29.4297 351.069 32.6791 351.218 35.8405C351.413 39.6909 351.036 43.1751 350.087 46.2931C349.195 49.4074 347.786 52.0944 345.858 54.354C343.93 56.6137 341.481 58.3886 338.509 59.6787C335.595 60.9652 332.186 61.7362 328.282 61.992C319.671 62.5562 313.285 61.0141 309.125 57.3659C304.965 53.7176 302.609 47.6737 302.056 39.2342C301.879 36.5358 301.781 34.1494 301.76 32.0751C301.793 29.9396 301.738 27.781 301.595 25.5993C301.279 20.7767 300.942 16.5033 300.582 12.779C300.223 9.05478 299.901 5.90465 299.617 3.32863C300.314 3.39832 301.068 3.46425 301.879 3.52642C302.687 3.53118 303.435 3.51099 304.124 3.46585C304.755 3.42448 305.356 3.35628 305.927 3.26126C306.551 3.10506 307.175 2.94886 307.799 2.79266C307.767 4.06325 307.761 5.73572 307.781 7.81007C307.798 9.82701 307.834 12.131 307.888 14.7221C307.943 17.3131 308.039 20.1033 308.177 23.0924C308.315 26.0816 308.49 29.1837 308.7 32.3988C308.828 34.3508 308.99 36.3871 309.187 38.5075C309.38 40.5706 309.714 42.5956 310.19 44.5824C310.663 46.5119 311.332 48.3707 312.199 50.159C313.119 51.8861 314.342 53.3916 315.868 54.6755C317.39 55.9019 319.268 56.8456 321.502 57.5064C323.733 58.1098 326.455 58.3062 329.67 58.0956C332.828 57.8888 335.439 57.2564 337.503 56.1987C339.624 55.1372 341.325 53.8149 342.605 52.2319C343.885 50.649 344.835 48.857 345.453 46.8561C346.129 44.8515 346.57 42.7757 346.775 40.6289C346.98 38.4821 347.042 36.3447 346.96 34.2167C346.879 32.0887 346.779 30.1348 346.663 28.355Z" fill="#DFAD77" fill-opacity="0.1"/>
<path d="M365.142 52.3628C365.374 52.9627 365.744 53.6335 366.251 54.3751C366.816 55.1222 367.47 55.8488 368.212 56.5549C369.017 57.2091 369.916 57.7856 370.909 58.2843C371.959 58.7884 373.086 59.0975 374.288 59.2115C375.377 59.3147 376.424 59.2406 377.43 58.9893C378.494 58.7433 379.428 58.3407 380.232 57.7812C381.094 57.2272 381.8 56.485 382.35 55.5547C382.901 54.6244 383.236 53.5292 383.355 52.2691C383.524 50.4935 383.136 49.0986 382.192 48.0844C381.31 47.0183 380.152 46.1283 378.717 45.4143C377.288 44.6431 375.707 43.9442 373.975 43.3176C372.243 42.691 370.67 41.9062 369.257 40.9631C367.849 39.9628 366.695 38.7264 365.794 37.254C364.951 35.787 364.643 33.8506 364.871 31.4449C365.05 29.5548 365.528 27.8663 366.305 26.3795C367.087 24.8355 368.134 23.5477 369.445 22.5161C370.757 21.4846 372.33 20.738 374.165 20.2763C376.006 19.7573 378.072 19.6064 380.363 19.8236C382.483 20.0245 384.231 20.4793 385.609 21.1878C387.044 21.9018 388.398 22.5503 389.672 23.1335C389.132 23.9492 388.602 24.9681 388.082 26.1902C387.561 27.4123 387.211 28.3616 387.032 29.0381L386.001 28.9403C385.673 27.5222 384.902 26.2066 383.688 24.9934C382.473 23.7802 380.892 23.0813 378.945 22.8967C378.086 22.8152 377.213 22.8769 376.327 23.0819C375.44 23.2868 374.626 23.6431 373.885 24.1507C373.143 24.6583 372.5 25.3486 371.955 26.2216C371.41 27.0946 371.077 28.1612 370.958 29.4213C370.784 31.2542 371.135 32.7323 372.011 33.8557C372.95 34.9271 374.137 35.8199 375.572 36.5338C377.006 37.2478 378.59 37.9181 380.322 38.5447C382.06 39.1139 383.635 39.8701 385.048 40.8132C386.467 41.699 387.598 42.8754 388.441 44.3424C389.342 45.8148 389.678 47.7539 389.45 50.1596C389.293 51.8206 388.766 53.4178 387.869 54.951C387.03 56.4896 385.86 57.8524 384.361 59.0395C382.924 60.1747 381.225 61.025 379.264 61.5904C377.309 62.0986 375.128 62.2386 372.723 62.0105C370.088 61.7607 367.907 61.2939 366.18 60.6101C364.454 59.9262 363.021 59.1836 361.884 58.3822C362.298 57.6702 362.737 56.7004 363.2 55.4729C363.726 54.1935 364.029 53.1242 364.111 52.265L365.142 52.3628Z" fill="#DFAD77" fill-opacity="0.1"/>
<path d="M460.996 77.9487C460.362 78.2285 459.409 78.4663 458.138 78.6621C456.938 78.8207 455.502 78.8727 453.827 78.8181C452.225 78.7264 450.44 78.5456 448.472 78.2759C446.504 78.0062 444.506 77.5457 442.48 76.8945C438.152 75.5041 434.347 73.6168 431.064 71.2325C427.799 68.7934 425.229 65.8828 423.355 62.5007C421.535 59.1362 420.439 55.3999 420.067 51.2918C419.767 47.1465 420.365 42.7459 421.861 38.0898C423.357 33.4338 425.425 29.5357 428.066 26.3956C430.779 23.2184 433.882 20.801 437.376 19.1437C440.924 17.5039 444.799 16.6339 449.001 16.5337C453.203 16.4334 457.578 17.1137 462.124 18.5745C465.74 19.7361 468.903 21.1755 471.615 22.8928C474.398 24.5729 476.774 26.3029 478.74 28.0828C478.055 28.7089 477.365 29.6353 476.668 30.8619C475.972 32.0886 475.401 33.1137 474.955 33.9374L474.409 33.9433C474.073 33.11 473.543 32.1241 472.821 30.9856C472.099 29.8472 471.204 28.6833 470.136 27.494C469.068 26.3048 467.791 25.1996 466.306 24.1786C464.839 23.1029 463.119 22.2482 461.147 21.6146C457.916 20.5762 454.736 20.1286 451.608 20.2718C448.534 20.4325 445.605 21.2741 442.819 22.7964C440.106 24.2815 437.638 26.5099 435.414 29.4817C433.208 32.3987 431.374 36.1305 429.913 40.677C428.452 45.2235 427.76 49.3522 427.837 53.0632C427.931 56.7195 428.64 59.9687 429.963 62.811C431.358 65.6161 433.258 67.979 435.662 69.8998C438.121 71.8381 440.967 73.3265 444.199 74.3649C446.171 74.9985 448.058 75.3328 449.859 75.3678C451.716 75.4204 453.434 75.338 455.015 75.1207C456.668 74.8662 458.165 74.5315 459.507 74.1166C460.922 73.6645 462.109 73.2604 463.07 72.9043L463.293 73.3386L460.996 77.9487Z" fill="#DFAD77" fill-opacity="0.1"/>
<path d="M478.484 67.9469C477.37 70.0913 476.474 72.2519 475.797 74.4288C475.171 76.6322 474.906 78.764 475.003 80.8241C475.127 82.8333 475.715 84.6952 476.77 86.4099C477.824 88.1247 479.474 89.5656 481.721 90.7326C483.967 91.8997 486.095 92.4216 488.104 92.2983C490.113 92.175 491.975 91.5862 493.69 90.5319C495.431 89.4266 496.998 87.9712 498.39 86.1657C499.832 84.3867 501.111 82.425 502.225 80.2806C503.339 78.1362 504.209 75.9624 504.835 73.759C505.512 71.5821 505.789 69.4891 505.665 67.48C505.569 65.4198 504.993 63.5324 503.939 61.8176C502.885 60.1029 501.234 58.662 498.988 57.4949C496.741 56.3279 494.614 55.806 492.604 55.9293C490.595 56.0526 488.72 56.6669 486.979 57.7722C485.264 58.8264 483.685 60.2431 482.242 62.0221C480.851 63.8276 479.598 65.8026 478.484 67.9469ZM471.744 64.4457C473.548 60.9739 475.609 58.3167 477.928 56.474C480.324 54.6069 482.801 53.3971 485.357 52.8448C487.939 52.2415 490.501 52.1782 493.041 52.655C495.659 53.1073 498.066 53.9037 500.261 55.0442C502.507 56.2113 504.543 57.7225 506.367 59.5778C508.217 61.3821 509.638 63.5142 510.63 65.9743C511.647 68.3832 512.056 71.0916 511.855 74.0993C511.731 77.0825 510.768 80.31 508.964 83.7818C507.161 87.2536 505.061 89.9231 502.664 91.7903C500.345 93.6329 497.895 94.8559 495.312 95.4593C492.756 96.0116 490.221 96.0238 487.707 95.4959C485.193 94.9681 482.813 94.1206 480.567 92.9536C478.371 91.813 476.31 90.3529 474.381 88.5732C472.504 86.82 471.057 84.7389 470.039 82.3299C469.048 79.8698 468.614 77.1482 468.737 74.1651C468.938 71.1574 469.941 67.9176 471.744 64.4457Z" fill="#DFAD77" fill-opacity="0.1"/>
<path d="M540.531 101.442C543.078 97.9591 544.323 94.8427 544.267 92.093C544.245 89.2968 543.049 87.0328 540.68 85.3008C537.429 82.9236 534.307 82.1731 531.315 83.0495C528.368 83.9598 525.57 86.2262 522.922 89.8488L518.591 95.7703C517.063 97.8602 515.473 100.083 513.822 102.439C512.251 104.783 510.902 106.969 509.776 108.996C508.775 108.122 507.764 107.312 506.743 106.564C505.721 105.817 504.642 105.1 503.506 104.411C505.097 102.724 506.747 100.759 508.458 98.517C510.249 96.2627 511.908 94.0906 513.436 92.0007L518.734 84.7556C520.262 82.6656 521.812 80.4488 523.383 78.1052C525.035 75.7491 526.475 73.4876 527.703 71.3207C528.833 72.5038 529.793 73.3841 530.583 73.9614C530.954 74.2331 531.366 74.4985 531.818 74.7577C532.351 75.0044 532.953 75.3021 533.624 75.6507C532.127 77.4065 530.698 79.2133 529.34 81.0711L529.479 81.1729C532.24 80.1268 534.917 79.7318 537.509 79.9881C540.135 80.1979 542.702 81.2198 545.21 83.0536C546.511 84.0045 547.675 85.1412 548.704 86.4636C549.779 87.82 550.511 89.3532 550.9 91.0631C551.323 92.7267 551.282 94.5857 550.778 96.6402C550.354 98.6822 549.259 100.911 547.493 103.326C546.033 105.323 544.475 107.356 542.82 109.424C541.199 111.446 539.522 113.641 537.79 116.01L534.479 120.538C533.936 121.281 533.392 122.024 532.849 122.767C532.386 123.498 531.94 124.205 531.511 124.89C530.65 124.118 529.709 123.358 528.687 122.611C527.712 121.898 526.726 121.248 525.729 120.662C527.588 118.314 529.498 115.898 531.458 113.411C533.465 110.959 535.454 108.386 537.424 105.692L540.531 101.442Z" fill="#DFAD77" fill-opacity="0.1"/>
<path d="M580.936 98.8754C579.324 100.363 577.753 101.848 576.222 103.332C574.773 104.813 573.283 106.296 571.753 107.78C572.217 108.21 573.083 109.011 574.349 110.183C575.655 111.314 577.086 112.521 578.642 113.804C578.483 113.892 578.247 114.104 577.934 114.442L576.703 115.772C576.429 116.068 576.255 116.298 576.18 116.464C575.67 115.914 575.12 115.365 574.528 114.818C573.976 114.229 573.363 113.621 572.687 112.996L569.584 110.123C569.385 110.253 568.696 110.87 567.518 111.974C566.381 113.117 565.03 114.493 563.463 116.1C561.936 117.666 560.33 119.315 558.646 121.05C557.005 122.823 555.539 124.406 554.25 125.8C553.155 126.982 552.102 128.163 551.089 129.342C550.118 130.56 549.371 131.79 548.849 133.031C548.366 134.231 548.208 135.418 548.376 136.592C548.543 137.766 549.261 138.939 550.527 140.112C550.865 140.424 551.347 140.793 551.974 141.216C552.644 141.679 553.248 142.042 553.788 142.307L552.381 143.827C551.546 143.289 550.607 142.694 549.564 142.042C548.524 141.472 547.603 140.815 546.8 140.073C544.14 137.61 542.783 135.138 542.728 132.657C542.673 130.176 543.818 127.668 546.163 125.135C547.218 123.995 548.372 122.79 549.626 121.52C550.919 120.208 552.31 118.79 553.798 117.267C555.368 115.741 557.053 114.047 558.854 112.186C560.694 110.283 562.708 108.149 564.897 105.785L562.87 103.909C562.532 103.596 562.154 103.285 561.735 102.976C561.355 102.624 560.934 102.274 560.473 101.925C560.75 101.711 560.986 101.498 561.181 101.287C561.458 101.073 561.713 100.839 561.948 100.586C562.143 100.375 562.318 100.144 562.471 99.8937C562.666 99.6826 562.841 99.4519 562.994 99.2018C564.777 101.087 566.111 102.44 566.998 103.261C567.737 102.377 568.672 101.283 569.803 99.9771C570.975 98.7104 572.144 97.3624 573.311 95.9331L580.619 98.5823L580.936 98.8754Z" fill="#DFAD77" fill-opacity="0.1"/>
<path d="M588.105 151.56C587.205 151.045 586.235 150.362 585.196 149.511C584.195 148.703 583.153 147.892 582.07 147.078C581.032 146.227 579.927 145.432 578.758 144.693C577.626 143.998 576.46 143.484 575.261 143.152C574.099 142.862 572.919 142.817 571.722 143.014C570.562 143.255 569.372 143.902 568.153 144.955C566.106 146.722 565.067 148.645 565.037 150.723C565.007 152.801 565.612 154.559 566.853 155.996C568.281 157.651 570.036 158.759 572.116 159.319C574.233 159.924 576.221 160.07 578.08 159.757L588.105 151.56ZM585.805 125.385C588.977 126.067 591.539 127.01 593.491 128.214C595.442 129.418 597.169 130.891 598.673 132.633C600.027 134.201 601.028 135.845 601.676 137.565C602.369 139.248 602.674 140.922 602.593 142.589C602.555 144.217 602.151 145.82 601.383 147.395C600.658 148.933 599.577 150.322 598.14 151.562C595.657 153.705 593.137 155.805 590.58 157.86C588.065 159.879 585.436 162.072 582.693 164.441C582.17 164.892 581.604 165.38 580.994 165.907C580.465 166.439 580.037 166.999 579.708 167.587C579.423 168.137 579.259 168.696 579.218 169.264C579.214 169.876 579.493 170.508 580.057 171.161C580.245 171.379 580.433 171.597 580.621 171.815C580.89 172.038 581.184 172.203 581.503 172.308L580.066 173.548C579.434 173.257 578.734 172.798 577.964 172.17C577.232 171.586 576.49 170.859 575.738 169.988C574.535 168.594 573.962 167.226 574.02 165.884C574.121 164.505 574.682 163.261 575.701 162.153C572.78 161.938 570.291 161.388 568.235 160.503C566.179 159.618 564.192 158.065 562.275 155.843C561.335 154.755 560.566 153.556 559.969 152.247C559.371 150.939 559.064 149.57 559.046 148.141C559.067 146.756 559.33 145.388 559.837 144.038C560.425 142.695 561.351 141.478 562.614 140.387C565.227 138.132 567.948 137.189 570.776 137.56C573.642 137.974 576.555 139.412 579.516 141.873C581.938 143.887 583.843 145.434 585.232 146.515C586.703 147.602 587.854 148.319 588.685 148.665C589.554 149.055 590.24 149.147 590.745 148.939C591.293 148.694 591.894 148.289 592.547 147.725C593.636 146.785 594.569 145.752 595.345 144.626C596.121 143.5 596.635 142.335 596.887 141.129C597.138 139.924 597.087 138.676 596.733 137.386C596.423 136.057 595.704 134.74 594.576 133.433C593.072 131.691 591.27 130.396 589.171 129.549C587.108 128.745 585.061 128.574 583.028 129.037L582.408 128.318L585.805 125.385Z" fill="#DFAD77" fill-opacity="0.1"/>
<path d="M597.409 164.414C600.542 162.371 603.586 161.142 606.543 160.725C609.499 160.308 612.25 160.472 614.796 161.216C617.422 161.977 619.794 163.246 621.915 165.022C624.083 166.768 625.922 168.797 627.43 171.111C629.159 173.761 630.361 176.343 631.038 178.855C631.794 181.384 632.061 183.374 631.839 184.824C630.896 184.958 629.92 185.147 628.913 185.392C627.984 185.654 627.024 185.972 626.03 186.345L625.653 185.766C626.06 185.02 626.388 184.154 626.637 183.167C626.935 182.149 627.082 181.057 627.077 179.892C627.153 178.744 627.045 177.578 626.754 176.394C626.511 175.179 626.012 173.993 625.258 172.836C623.844 170.667 622.209 169.055 620.352 167.999C618.576 166.959 616.658 166.389 614.601 166.289C612.575 166.236 610.441 166.597 608.199 167.372C606.036 168.164 603.847 169.283 601.63 170.729C596.666 173.966 593.598 177.477 592.426 181.263C591.303 185.018 592.077 188.943 594.748 193.04C595.377 194.004 596.141 194.913 597.042 195.768C597.991 196.592 598.997 197.344 600.059 198.025C601.17 198.675 602.305 199.205 603.466 199.616C604.658 200.075 605.82 200.382 606.952 200.537L606.97 201.04C605.657 201.553 604.382 202.178 603.145 202.916C601.046 202.224 598.879 201.061 596.646 199.427C594.444 197.84 592.589 195.89 591.08 193.577C589.729 191.505 588.651 189.22 587.847 186.722C587.122 184.241 586.908 181.702 587.206 179.104C587.552 176.474 588.512 173.891 590.086 171.353C591.691 168.864 594.132 166.551 597.409 164.414Z" fill="#DFAD77" fill-opacity="0.1"/>
<path d="M654.064 196.435C652.035 197.267 650.045 198.112 648.093 198.969C646.218 199.851 644.305 200.721 642.353 201.579C642.638 202.144 643.17 203.196 643.948 204.737C644.778 206.252 645.698 207.882 646.709 209.627C646.529 209.654 646.234 209.771 645.823 209.978L644.205 210.795C643.846 210.977 643.602 211.132 643.474 211.262C643.188 210.568 642.863 209.862 642.5 209.143C642.188 208.398 641.825 207.615 641.409 206.793L639.503 203.019C639.271 203.071 638.411 203.409 636.921 204.033C635.457 204.708 633.711 205.526 631.682 206.486C629.705 207.421 627.625 208.407 625.442 209.445C623.285 210.535 621.359 211.508 619.665 212.364C618.227 213.091 616.827 213.83 615.467 214.582C614.132 215.385 613.004 216.277 612.081 217.259C611.211 218.215 610.649 219.272 610.396 220.431C610.144 221.59 610.407 222.939 611.185 224.48C611.393 224.891 611.717 225.404 612.157 226.02C612.622 226.687 613.062 227.238 613.476 227.674L611.627 228.608C611.032 227.813 610.359 226.928 609.609 225.953C608.833 225.056 608.199 224.119 607.706 223.144C606.072 219.908 605.661 217.118 606.475 214.773C607.288 212.429 609.236 210.478 612.317 208.921C613.703 208.221 615.206 207.494 616.824 206.741C618.493 205.962 620.291 205.118 622.217 204.21C624.22 203.327 626.39 202.327 628.727 201.211C631.115 200.069 633.747 198.771 636.623 197.318L635.377 194.853C635.17 194.443 634.924 194.019 634.639 193.583C634.405 193.121 634.133 192.646 633.822 192.158C634.156 192.054 634.452 191.937 634.709 191.807C635.043 191.703 635.364 191.573 635.672 191.417C635.929 191.287 636.172 191.132 636.403 190.951C636.66 190.821 636.904 190.666 637.135 190.485C638.148 192.873 638.927 194.607 639.472 195.685C640.473 195.115 641.731 194.415 643.246 193.586C644.786 192.807 646.352 191.952 647.944 191.019L653.87 196.05L654.064 196.435Z" fill="#DFAD77" fill-opacity="0.1"/>
<path d="M663.254 287.42C671.166 285.384 677.261 283.787 681.537 282.627C685.813 281.468 688.73 280.569 690.289 279.93C690.335 280.571 690.374 281.185 690.406 281.771C690.494 282.343 690.609 282.907 690.752 283.464C690.939 284.189 691.293 284.989 691.815 285.864C689.822 286.199 687.439 286.634 684.666 287.169C681.948 287.69 679.015 288.296 675.866 288.987C672.772 289.664 669.568 290.37 666.252 291.104C662.991 291.824 659.821 292.551 656.742 293.284C652.995 294.188 649.501 294.463 646.261 294.109C643.036 293.81 640.134 292.923 637.556 291.447C634.978 289.972 632.78 287.893 630.962 285.213C629.158 282.587 627.768 279.38 626.793 275.591C624.643 267.233 624.975 260.672 627.789 255.909C630.603 251.145 636.106 247.709 644.297 245.602C646.916 244.928 649.242 244.389 651.277 243.984C653.382 243.621 655.493 243.167 657.61 242.622C662.291 241.418 666.427 240.294 670.021 239.251C673.614 238.208 676.65 237.308 679.129 236.552C679.189 237.249 679.264 238.002 679.353 238.811C679.498 239.605 679.657 240.337 679.829 241.005C679.986 241.618 680.165 242.196 680.364 242.739C680.633 243.323 680.902 243.907 681.171 244.492C679.917 244.696 678.272 245 676.238 245.405C674.259 245.795 672.001 246.257 669.465 246.79C666.929 247.324 664.205 247.936 661.293 248.626C658.382 249.315 655.365 250.062 652.245 250.864C650.351 251.352 648.38 251.888 646.332 252.475C644.341 253.046 642.413 253.75 640.549 254.586C638.74 255.408 637.038 256.411 635.441 257.594C633.914 258.818 632.661 260.299 631.683 262.036C630.759 263.759 630.18 265.779 629.945 268.097C629.765 270.401 630.077 273.113 630.88 276.233C631.668 279.298 632.773 281.746 634.195 283.579C635.631 285.467 637.246 286.893 639.039 287.858C640.832 288.822 642.768 289.423 644.849 289.66C646.944 289.953 649.066 290.001 651.214 289.805C653.361 289.609 655.473 289.273 657.549 288.799C659.625 288.324 661.527 287.864 663.254 287.42Z" fill="#DFAD77" fill-opacity="0.1"/>
<path d="M643.113 310.34C642.566 310.679 641.975 311.166 641.339 311.802C640.709 312.495 640.116 313.271 639.558 314.131C639.064 315.042 638.663 316.032 638.356 317.1C638.054 318.225 637.958 319.39 638.067 320.593C638.167 321.681 638.433 322.697 638.865 323.64C639.303 324.64 639.871 325.484 640.569 326.171C641.272 326.916 642.132 327.473 643.148 327.843C644.164 328.212 645.302 328.34 646.562 328.225C648.339 328.063 649.638 327.424 650.461 326.31C651.346 325.247 652.007 323.944 652.445 322.402C652.939 320.855 653.335 319.173 653.631 317.355C653.928 315.537 654.409 313.846 655.076 312.283C655.799 310.715 656.802 309.353 658.083 308.196C659.369 307.097 661.216 306.437 663.622 306.218C665.513 306.046 667.261 306.204 668.865 306.694C670.527 307.178 671.985 307.969 673.241 309.068C674.497 310.167 675.521 311.575 676.313 313.294C677.162 315.008 677.691 317.011 677.9 319.302C678.093 321.422 677.969 323.225 677.526 324.709C677.089 326.251 676.701 327.702 676.363 329.062C675.462 328.682 674.363 328.349 673.066 328.062C671.769 327.776 670.771 327.607 670.073 327.555L669.979 326.524C671.312 325.94 672.463 324.94 673.432 323.523C674.4 322.106 674.796 320.423 674.618 318.475C674.54 317.615 674.318 316.769 673.954 315.936C673.589 315.102 673.089 314.368 672.453 313.733C671.817 313.097 671.02 312.592 670.062 312.217C669.103 311.843 667.994 311.713 666.733 311.827C664.9 311.995 663.511 312.612 662.569 313.68C661.689 314.8 661.03 316.131 660.593 317.673C660.156 319.215 659.789 320.895 659.492 322.713C659.253 324.526 658.8 326.214 658.134 327.777C657.525 329.334 656.577 330.663 655.291 331.762C654.01 332.919 652.166 333.607 649.759 333.826C648.098 333.978 646.431 333.754 644.759 333.155C643.092 332.614 641.537 331.716 640.093 330.461C638.713 329.258 637.564 327.745 636.647 325.922C635.787 324.094 635.247 321.976 635.028 319.57C634.788 316.934 634.844 314.705 635.198 312.882C635.552 311.058 636.018 309.514 636.596 308.248C637.372 308.524 638.406 308.776 639.698 309.005C641.052 309.286 642.159 309.387 643.019 309.309L643.113 310.34Z" fill="#DFAD77" fill-opacity="0.1"/>
</svg>
